<svg xmlns="http://www.w3.org/2000/svg" xmlns:xlink="http://www.w3.org/1999/xlink" style="enable-background:new 0 0 512 512" id="Layer_1" width="512" height="512" x="0" y="0" version="1.1" viewBox="0 0 512 512" xml:space="preserve"><g><circle style="fill:#ff641a" cx="256" cy="256" r="256"/><path style="fill:#f03800" d="M420.248,188.811l-44.063-44.063l-89.433,89.433l-54.99-54.99L69.544,341.41l170.052,170.052 C245.021,511.805,250.488,512,256,512c141.385,0,256-114.615,256-256c0-6.965-0.289-13.862-0.835-20.687l-68.709-68.709 L420.248,188.811z"/><g><rect style="fill:#64e1dc" width="88.134" height="174.811" x="69.535" y="166.595"/><rect style="fill:#00c8c8" width="88.134" height="174.811" x="354.331" y="166.595"/><path style="fill:#e0f4ff" d="M135.818,144.743v218.514h240.365V144.743H135.818z"/><rect style="fill:#bbdcff" width="120.183" height="218.514" x="256" y="144.743"/><polygon style="fill:#61729b" points="354.331 166.595 354.331 282.188 299.703 314.965 190.446 314.965 157.669 282.188 157.669 166.595"/><polygon style="fill:#47568c" points="354.331 166.595 354.331 282.188 299.703 314.965 256 314.965 256 166.595"/><path style="fill:#ffb64c" d="M234.149,254c-18.074,0-32.777-14.703-32.777-32.777c0-18.074,14.703-32.777,32.777-32.777 c18.074,0,32.777,14.703,32.777,32.777C266.926,239.297,252.223,254,234.149,254z"/><polygon style="fill:#9cdd05" points="354.331 282.188 354.331 341.405 157.669 341.405 157.669 282.188 190.446 249.411 234.149 293.113 299.703 227.559"/><polygon style="fill:#6b0" points="354.331 282.188 354.331 341.405 256 341.405 256 271.262 299.703 227.559"/></g></g></svg>